<svg xmlns="http://www.w3.org/2000/svg" width="220" height="212" fill="none"><path fill="#091E42" d="M153.725 44.598a9.27 9.27 0 0 0 3.554-.919 10.301 10.301 0 0 0 3.043-2.199 9.537 9.537 0 0 0 2.172-3.528 4.926 4.926 0 0 0 .247-2.182 2.907 2.907 0 0 0-.79-1.641c-.773-.788-2.056-1.083-2.994-.377a2.813 2.813 0 0 0-.839 3.298c.493 1.1 1.777 1.575 2.912 1.51 1.366-.083 2.567-.87 3.505-1.806a15.877 15.877 0 0 0 2.599-3.413 18.426 18.426 0 0 0 1.711-3.97c.099-.329.181-.657.264-.985a.36.36 0 0 0 0-.263c-.033-.066-.116-.082-.181-.05a.81.81 0 0 0-.428.526 14.55 14.55 0 0 1-.56 1.887c-.032.082-.049.148-.082.23 0 .016-.016.033-.016.049 0 0 .033-.082.016-.033-.016.05-.033.082-.049.131-.066.165-.132.312-.198.476-.131.296-.263.591-.411.886-.066.148-.148.296-.23.444l-.033.065.016-.033-.066.115c-.032.066-.082.148-.115.213-.164.296-.345.575-.526.854a6.197 6.197 0 0 1-.28.41l-.066.099-.049.065c.033-.05 0 0 0 0s-.033.033-.033.05l-.066.098a13.04 13.04 0 0 1-.625.788c-.099.114-.198.246-.313.36a1.585 1.585 0 0 1-.164.181c-.066.066.049-.05-.017.016l-.098.099c-.231.23-.461.443-.708.656l-.099.082c.05-.049 0 0-.016.017l-.198.147c-.131.082-.263.18-.394.246l-.198.115-.049.033-.115.05c-.149.065-.28.114-.428.163-.132.05-.263.083-.412.115-.049.017-.115.017-.164.033-.066.017-.132.017-.214.033-.28.033-.576.016-.856-.016a2.791 2.791 0 0 1-1.48-.64 1.735 1.735 0 0 1-.247-.246 1.589 1.589 0 0 1-.198-.296 1.208 1.208 0 0 1-.148-.328c-.016-.033-.016-.05-.033-.082 0-.017-.016-.017-.016-.033.016.05 0 0 0 0a.573.573 0 0 1-.033-.18 2.754 2.754 0 0 1-.033-.361v-.099c0-.066 0-.131.017-.197.016-.049.016-.115.032-.164 0 .05-.016.066 0 .033l.017-.033a.22.22 0 0 1 .033-.098c.016-.033.016-.05.033-.082.033-.082-.05.114 0 0a.74.74 0 0 1 .082-.165s-.066.115-.033.066l.017-.033.049-.065c.049-.082-.066.082-.017.016a.297.297 0 0 1 .066-.082l.033-.033c.033-.033-.049.05-.033.05.017 0 .033-.033.066-.066l.066-.05c.016-.016.049-.032 0 0-.049.033 0 0 .016-.016l.148-.098c.05-.033.066-.033.017 0l.099-.05c.049-.016.115-.049.164-.065l.082-.017c.017 0 .116-.016.05-.016.477-.066.971.033 1.382.295.444.247.79.624 1.004 1.083.131.28.197.575.23.886 0 .083.016.148.016.23v.197c0 .164-.016.328-.049.492l-.049.247v-.017c0 .017-.017.05-.017.066l-.033.115-.148.492c-.016.033-.016.066-.033.098.05-.098 0 .017-.016.033l-.099.246a3.511 3.511 0 0 1-.214.427l-.033.05.033-.05-.049.099c-.033.065-.066.13-.115.18-.083.131-.148.246-.231.377l-.115.165-.033.049-.049.065c-.082.115-.165.23-.263.329-.099.098-.181.213-.28.328l-.148.164.033-.033-.05.05-.082.081a10.19 10.19 0 0 1-.625.575c-.05.049-.115.098-.165.13l-.066.05-.049.033c.017-.016.049-.033.017-.016l-.346.246a7.11 7.11 0 0 1-.74.46c-.132.065-.247.147-.379.212l-.099.05c.066-.033-.016.016-.049.016l-.197.099c-.264.114-.543.23-.807.328a8.01 8.01 0 0 1-.822.246c-.28.066-.56.131-.806.164-.247.033-.56.066-.84.082-.213.016-.378.246-.46.427-.05.098-.165.476.066.46Zm6.152 2.182.065-.065.033-.033.033-.033.05-.049c.082-.082.181-.164.263-.246l.049-.033c.017-.016.099-.082.017-.016a.922.922 0 0 1 .131-.099l.296-.197c.099-.065.181-.115.28-.164l.082-.049c-.016 0-.049.033 0 0l.181-.082c.198-.082.412-.164.626-.23a4.373 4.373 0 0 1 1.3-.197c.444 0 .872.05 1.283.18a5.195 5.195 0 0 1 2.172 1.314c.609.623 1.135 1.493 1.152 2.379v.115c0 .033 0 .065-.017.098 0 0-.016.115 0 .05.017-.066-.016.049-.016.049-.017.032-.017.049-.033.082-.033.082-.033 0 0-.017-.017 0-.033.082-.033.099-.033.065.066-.115.016-.033a.36.36 0 0 0-.049.082s.082-.099.033-.033l-.05.066c-.032.049-.016-.017.017-.017-.017 0-.049.05-.066.066l-.049.033c-.033.033-.033.033.016-.017l-.049.033c-.033.033-.082.05-.115.082-.033.033 0 0 0 0l-.083.033a1.32 1.32 0 0 1-.246.066.752.752 0 0 1-.527-.132 1.188 1.188 0 0 1-.395-.41 1.446 1.446 0 0 1-.115-.279c0 .017.016.033 0-.016 0-.033-.016-.05-.016-.082-.017-.066-.017-.115-.017-.18v-.116c0-.065.017-.114.017-.18 0-.033.016-.066.016-.082 0-.066-.033.082 0-.017.016-.065.033-.13.066-.213 0 0 .033-.115.016-.049-.016.066.017-.05.017-.05.033-.049.049-.114.082-.163.033-.05.066-.099.082-.164l-.033.049.033-.066.05-.082c.049-.082.098-.148.148-.23l.082-.13c.016-.034.066-.083-.016.032.016-.033.032-.05.049-.082a8.29 8.29 0 0 1 .362-.443l.033-.033c-.083.115-.033.033-.017.016l.099-.098c.066-.066.148-.131.214-.197s.132-.115.197-.18c.033-.017.066-.083.099-.083l-.033.033.05-.032.065-.05c.148-.115.313-.213.461-.311a3.48 3.48 0 0 1 .263-.148l.115-.066.05-.033.033-.016a8.272 8.272 0 0 1 1.053-.427l.543-.147.148-.033.066-.017h.033l.296-.049c.378-.05.757-.066 1.135-.05a5.902 5.902 0 0 1 2.188.493c.181.082.346.164.51.263.165.098.379-.18.461-.296a.819.819 0 0 0 .132-.328c0-.066.016-.164-.066-.213-1.464-.82-3.225-.968-4.854-.558a7.128 7.128 0 0 0-4.179 2.937 4.49 4.49 0 0 0-.708 1.625 1.78 1.78 0 0 0 .297 1.46c.279.378.756.558 1.234.46.526-.115.97-.542 1.234-1.001a2.432 2.432 0 0 0 .263-1.789 4.034 4.034 0 0 0-.625-1.411 5.123 5.123 0 0 0-2.106-1.772c-.872-.394-1.843-.542-2.781-.394a5.5 5.5 0 0 0-2.748 1.263 9.08 9.08 0 0 0-.559.558.916.916 0 0 0-.181.328.36.36 0 0 0 0 .263c.082.246.329 0 .395-.098Zm-6.482-8.188a8.06 8.06 0 0 0 1.464-3.347 7.417 7.417 0 0 0-.115-3.348 6.948 6.948 0 0 0-.724-1.772c-.165-.295-.773.46-.609.738a6.73 6.73 0 0 1 .905 2.97c.017.132.017.263.017.394v.329c-.017.262-.033.525-.066.787-.017.132-.05.263-.066.394 0 .017 0 .033-.017.05 0 0 .017-.066 0-.033-.016.032-.016.065-.016.098l-.049.197a3.655 3.655 0 0 1-.115.394.82.82 0 0 1-.066.18c-.017.033-.017.066-.033.082l-.017.05c-.016.065.033-.083.017-.033-.05.147-.115.279-.181.41l-.099.197-.049.098c-.05.099.033-.065 0 0a4.74 4.74 0 0 1-.231.394c-.033.066-.082.115-.115.18l-.033.033c-.033.05 0-.016.017-.032-.033.032-.05.065-.083.098a.93.93 0 0 0-.181.328.37.37 0 0 0 0 .263c.116.213.379-.017.445-.099Z"/><path fill="#F5B3A6" d="M.935 113.288c-.609-11.027.428-22.103 3.274-32.77a101.957 101.957 0 0 1 12.34-28.076 109.453 109.453 0 0 1 19.202-22.71 115.744 115.744 0 0 1 23.775-16.574C68.082 8.66 77.263 5.199 86.724 3.18 96.925.998 107.456.49 117.805 1.474a111.195 111.195 0 0 1 30.357 7.319 109.567 109.567 0 0 1 26.885 15.31c8.244 6.416 15.5 14.079 21.341 22.743a104.957 104.957 0 0 1 15.154 35.018 102.466 102.466 0 0 1 2.007 34.181 109.209 109.209 0 0 1-26.359 59.746 101.173 101.173 0 0 1-25.931 21.136c-9.905 5.628-20.764 9.583-31.936 11.847a112.236 112.236 0 0 1-34.109 1.576c-11.336-1.215-22.492-4.217-32.825-9.025-9.724-4.513-18.691-10.617-26.572-17.854a111.296 111.296 0 0 1-20.304-25.057A107.822 107.822 0 0 1 3.37 128.631a103.045 103.045 0 0 1-2.435-15.343c-.033-.476-.79.345-.757.689A103.791 103.791 0 0 0 7.895 145.5a111.226 111.226 0 0 0 16.964 28.043 108.798 108.798 0 0 0 24.12 21.628 102.03 102.03 0 0 0 30.703 13.472 110.39 110.39 0 0 0 34.553 3.102 112.084 112.084 0 0 0 33.466-7.5 103.297 103.297 0 0 0 29.123-17.426c8.441-7.204 15.697-15.786 21.522-25.205a111.885 111.885 0 0 0 13.064-30.473c2.781-10.633 3.982-21.693 3.356-32.67-.691-12.456-3.735-24.795-8.736-36.216-4.706-10.7-11.172-20.594-19.251-29.062-7.306-7.646-15.829-14.128-25.076-19.248A111.69 111.69 0 0 0 132.4 2.754 107.063 107.063 0 0 0 100.809.26a100.677 100.677 0 0 0-29.732 6.793A116.234 116.234 0 0 0 24.118 41.07 107.234 107.234 0 0 0 8.306 66.931 102.876 102.876 0 0 0 .474 97.65a108.404 108.404 0 0 0-.296 16.344c.017.459.774-.361.757-.706Z"/><path fill="#091E42" d="M200.419 79.517c0-.114-.016-.213-.016-.328v-.295c0-.214.016-.443.049-.657.033-.213.05-.426.099-.623 0-.05.016-.099.033-.148.016-.049 0 0 0 .017 0-.033.016-.066.016-.082.017-.115.05-.214.083-.312a5.36 5.36 0 0 1 .181-.558c.016-.05.033-.099.049-.131-.016.114-.016.049 0 0 0-.017.016-.033.016-.05.033-.098.083-.197.132-.295.082-.18.181-.361.263-.542-.082.148 0 0 .017-.032.016-.033.049-.082.066-.132.049-.082.115-.18.164-.262.05-.082.099-.164.165-.23.033-.033.049-.082.082-.115-.099.148.016-.016.033-.049.115-.148.23-.295.362-.443.066-.066.131-.148.181-.213l.049-.05c.066-.065-.066.066-.016.017l.115-.115c.132-.131.28-.279.428-.394.131-.131.279-.262.444-.377-.099.065.033-.017.049-.033l.116-.082c.082-.066.164-.115.246-.18.313-.214.626-.394.955-.575.016-.016.131-.066.065-.033.033-.016.083-.033.116-.065.082-.05.181-.083.263-.132.164-.082.345-.147.526-.213a8.27 8.27 0 0 1 1.136-.328 6.69 6.69 0 0 1 1.151-.132 7.743 7.743 0 0 1 1.234.033 8.646 8.646 0 0 1 4.443 1.773 7.982 7.982 0 0 1 2.814 4.447c.098.459.164.918.197 1.378 0 .098 0 .213.016.312v.262c0 .214-.016.427-.049.64-.033.213-.049.427-.099.64-.016.05-.016.099-.033.148.033-.115-.016.05-.016.082-.033.115-.049.213-.082.328-.05.213-.115.41-.198.624l-.049.147c0-.016.033-.098.016-.033l-.033.083c-.032.098-.082.197-.131.295-.082.197-.181.377-.28.574-.049.099.049-.098 0 0l-.033.05-.082.13a2.76 2.76 0 0 1-.181.296c-.066.099-.115.164-.165.263-.016.033-.131.164-.033.049a.82.82 0 0 1-.115.148c-.131.164-.263.344-.411.508l-.099.115-.049.05c.082-.1.016-.017 0 0-.082.081-.148.163-.23.23a5.983 5.983 0 0 1-.478.426l-.115.098c.082-.065 0 0-.016.017l-.05.032c-.098.066-.197.132-.279.197-.181.132-.379.246-.576.361-.099.05-.181.099-.28.148-.099.05.033-.016-.016.017l-.066.032-.181.082c-.198.099-.412.18-.625.263a8.596 8.596 0 0 1-2.567.509c-.444.016-.889 0-1.333-.05a8.266 8.266 0 0 1-4.623-2.1 8.76 8.76 0 0 1-1.563-1.92 8.121 8.121 0 0 1-1.136-3.479c-.016-.213-.263-.115-.362-.016a.87.87 0 0 0-.296.623 8.592 8.592 0 0 0 1.975 4.76 9.38 9.38 0 0 0 1.941 1.755 8.6 8.6 0 0 0 2.485 1.083c3.767.935 7.716-.673 9.724-3.987a9.288 9.288 0 0 0 1.415-5.35 8.354 8.354 0 0 0-2.271-5.251 8.65 8.65 0 0 0-4.36-2.412 8.345 8.345 0 0 0-4.903.344 9.74 9.74 0 0 0-3.933 2.856 9.066 9.066 0 0 0-2.056 4.84c-.05.46-.05.92-.033 1.379.016.23.263.115.362.016a.87.87 0 0 0 .296-.623l-.05-.05Zm15.103 12.603v-.115c0-.05 0-.115.017-.164.016-.05.016-.099.016-.148v.017c0-.033.017-.082.033-.115a.417.417 0 0 0 .05-.132c0 .05-.033.082-.017.033l.033-.082.033-.066c.016-.032.066-.082-.016.033.032-.049.049-.098.082-.147 0-.017.066-.099.016-.017-.049.082 0 0 .017-.016.033-.033.049-.066.082-.115.033-.05.099-.082 0 0l.033-.033.115-.115c.017-.016.049-.049.066-.049-.033 0-.066.05-.017.017.05-.033.083-.066.116-.083.033-.016.082-.049.131-.082l.05-.032.049-.033-.016.016c.082-.033.164-.066.263-.098.049-.017.082-.033.131-.033l.066-.017c.017 0 .099-.016.05-.016.197-.033.411-.033.608-.016.412.049.79.213 1.119.475.346.28.576.657.675 1.084.033.114.049.23.049.344v.115c0 .066 0 .131-.016.18-.017.05-.017.099-.017.148-.016.082 0 0 0-.016 0 .033-.016.065-.016.082l-.05.147c-.032.099.033-.065 0-.016l-.049.099-.033.065c-.033.05-.049.05.017-.016-.033.049-.05.082-.083.131-.033.033-.082.082 0 0-.016.016-.033.033-.033.05-.032.049-.082.098-.115.147.066-.099.017-.033 0 0l-.049.05-.066.065s-.082.066-.033.033l-.033.016c-.016.017-.049.033-.066.05-.049.032-.115.065-.164.098s.066-.033-.017.016l-.082.033-.148.05c-.099.032-.197.065-.296.081-.23.033-.444.033-.675 0a2.096 2.096 0 0 1-1.25-.672 2.333 2.333 0 0 1-.379-.575c-.032-.05-.049-.115-.065-.164 0-.016-.017-.033-.017-.05 0-.016-.016-.032-.016-.048v-.017c-.05-.147-.066-.262-.083-.377-.016-.23-.263-.115-.362-.017a.87.87 0 0 0-.296.624 2.415 2.415 0 0 0 1.827 2.117c.51.115 1.036.065 1.53-.131a2.949 2.949 0 0 0 1.333-1.198 3.04 3.04 0 0 0 .444-1.69 2.33 2.33 0 0 0-.642-1.477 2.385 2.385 0 0 0-2.616-.525 3.082 3.082 0 0 0-1.876 2.92c.017.23.264.115.362.017.181-.18.296-.394.296-.64Z"/><path fill="#F5B3A6" d="M207.791 84.194a4.564 4.564 0 0 0-1.234-2.839 4.703 4.703 0 0 0-5.035-1.083c-1.761.706-3.126 2.396-3.307 4.3-.017.245-.033.492-.017.738v.033c.082.951.461 1.87 1.086 2.592a4.558 4.558 0 0 0 2.435 1.526c.988.23 2.024.148 2.962-.246a5.027 5.027 0 0 0 2.336-2.035c.56-.902.823-1.936.774-2.986Z"/><path fill="#000" d="M28.675 38.182a7.327 7.327 0 0 0-3.85-1.477 7.063 7.063 0 0 0-3.998.837c-1.218.673-2.172 1.772-2.83 2.986a6.849 6.849 0 0 0-.79 3.988 6.033 6.033 0 0 0 5.824 5.251 7.29 7.29 0 0 0 3.916-.985 7.12 7.12 0 0 0 2.83-3.117 7.493 7.493 0 0 0 .609-3.693c-.082-1.132-.411-2.33-1.152-3.232a4.494 4.494 0 0 0-.56-.558c-.049-.05-.164 0-.213.033a.76.76 0 0 0-.247.262c-.082.132-.23.41-.066.542.1.082.198.164.28.246l.132.131.033.05.065.082c.165.197.297.426.428.656.247.476.428.985.527 1.526.066.279.098.574.115.853.016.148.016.296.033.46v.246c0-.017 0-.066 0 0v.115a7.775 7.775 0 0 1-.082.87c-.017.065-.017.13-.033.196 0 .033-.017.066-.017.115v.033s0 .099 0 0c-.016.131-.05.263-.099.394a3.675 3.675 0 0 1-.131.394c0 .016 0 .016-.017.032-.016.05.033-.098.017-.032l-.033.082c-.033.082-.066.147-.099.213s-.066.148-.115.23l-.05.098.034-.049c-.017.033-.033.05-.05.082l-.247.394c-.016.033-.049.066-.065.098l.016-.032-.033.049-.148.197c-.05.065-.082.115-.132.164-.049.049-.049.065-.082.082-.016.016-.033.033-.033.05l.017-.017c-.116.114-.23.23-.346.328a.643.643 0 0 1-.164.131l-.1.082c-.015.017-.032.017-.048.033l.016-.016c-.247.197-.51.36-.79.525l-.197.098-.033.017c-.05.032.05-.033 0 0l-.115.065c-.132.066-.28.132-.428.18-.28.116-.576.198-.872.28l-.214.049-.099.016-.05.017h-.032c-.165.032-.33.049-.494.065a6.17 6.17 0 0 1-4.08-.968 5.893 5.893 0 0 1-2.27-3.036 4.35 4.35 0 0 1-.198-.919c-.017-.164-.033-.311-.033-.475v-.41a6.06 6.06 0 0 1 .115-.936c.017-.05-.016.066 0 .017l.017-.05a.31.31 0 0 1 .032-.115.942.942 0 0 1 .066-.23l.148-.442c.033-.115-.033.065 0-.017l.05-.115c.033-.082.066-.147.098-.23.033-.081.066-.13.1-.196l.049-.099c.016-.033.016-.033.032-.049l.017-.016c-.033.082.016-.033.033-.05l.066-.098c.032-.066.082-.131.131-.197.05-.066.082-.131.132-.197l.066-.082c.049-.066-.017.033-.033.033.016-.017.033-.033.05-.066.098-.131.18-.246.295-.36l.148-.165.033-.05a4.427 4.427 0 0 0-.033.034l.1-.099c.114-.115.213-.213.328-.312.05-.049.115-.098.165-.147a.291.291 0 0 0 .082-.066c-.082.082.016-.016.05-.033.23-.18.493-.328.756-.476l.05-.032c.049-.017-.05.032 0 0l.082-.05c.082-.032.164-.065.23-.098a6.215 6.215 0 0 1 2.353-.525 7.115 7.115 0 0 1 3.784.919c.28.164.56.344.807.541.065.05.164 0 .213-.033a.94.94 0 0 0 .247-.262c-.016-.148.132-.427-.016-.558Z"/><path fill="#F5B3A6" d="M49.423 30.995a12.253 12.253 0 0 0-1.3-4.136 12.943 12.943 0 0 0-2.567-3.396 11.772 11.772 0 0 0-3.702-2.396 13.595 13.595 0 0 0-4.623-1.018 14.632 14.632 0 0 0-8.112 2.002 14.225 14.225 0 0 0-3.258 2.61 13.087 13.087 0 0 0-2.386 3.577 13.265 13.265 0 0 0-1.036 3.626 16.643 16.643 0 0 0-.115 3.84 14.86 14.86 0 0 0 .756 3.692 9.722 9.722 0 0 0 1.646 3.036c.329.41.724.788 1.135 1.116v.016a15.275 15.275 0 0 0 3.817 2.133c1.35.51 2.781.837 4.229.969a15.83 15.83 0 0 0 4.31-.247 14.172 14.172 0 0 0 4.016-1.444 12.801 12.801 0 0 0 3.126-2.428 15.581 15.581 0 0 0 2.484-3.446 15.385 15.385 0 0 0 1.432-3.955c.263-1.378.329-2.773.148-4.151Z"/><path fill="#fff" d="M33.085 36.984c.017-.016.05-.066.05-.082.033-.033.05-.066.082-.098.033-.033.05-.066.082-.083a5.36 5.36 0 0 1 .477-.377c.395-.246.807-.46 1.218-.656.428-.214.856-.443 1.283-.673a64.038 64.038 0 0 0 4.986-3.036 54.998 54.998 0 0 0 4.69-3.56 65.775 65.775 0 0 0 1.94-1.707c-.082-.148-.18-.312-.263-.46l-.066.066a54.543 54.543 0 0 1-4.393 3.61 55.694 55.694 0 0 1-4.82 3.2 54.42 54.42 0 0 1-2.518 1.411c-.823.443-1.711.804-2.435 1.395-.724.59-1.3 1.575-1.135 2.527.148.82.905 1.296 1.71 1.313.988.016 1.91-.542 2.749-.968a50.73 50.73 0 0 0 2.616-1.46 41.2 41.2 0 0 0 2.5-1.658c.396-.28.79-.591 1.185-.87a4.812 4.812 0 0 1 1.185-.706c.675-.246 1.613-.18 2.024.493.197.328.247.705.164 1.083a1.574 1.574 0 0 1-.18.46s-.066.098-.05.098c-.033.049-.066.098-.082.13l-.033.034-.033.033c-.05.065-.082.114-.132.18a24.55 24.55 0 0 1-1.908 2.018 38.766 38.766 0 0 1-2.09 1.937 47.7 47.7 0 0 1-4.492 3.43c-.757.508-1.546.984-2.336 1.443a.836.836 0 0 0-.362.591c-.017.197.115.279.28.18a44.915 44.915 0 0 0 4.771-3.216 46.154 46.154 0 0 0 4.377-3.823 24.665 24.665 0 0 0 2.007-2.133c.592-.739 1.135-1.74.872-2.708-.214-.837-.987-1.263-1.826-1.214-.955.05-1.728.64-2.468 1.198a41.284 41.284 0 0 1-5.084 3.282c-.428.23-.873.46-1.3.672-.428.23-.889.427-1.35.558-.74.197-1.744.033-2.04-.787a1.021 1.021 0 0 1-.05-.542c.017-.164.067-.312.133-.443 0 .017.049-.066.065-.082Zm1.892-12.405c0 .016-.017.049-.017.065 0 .017-.016.033-.016.066 0 .016-.017.033-.033.05a.215.215 0 0 0-.05.065l-.05.049-.081.066c-.017.016-.1.065-.083.065l-.148.099a7.06 7.06 0 0 1-.69.426c-.396.23-.807.443-1.185.673-.79.492-1.432 1.149-1.745 2.035-.246.69-.213 1.46.33 2.002.658.656 1.678.607 2.468.262.888-.393 1.629-1.066 2.385-1.673l5.101-4.037 2.534-2.018.395-.312a4.763 4.763 0 0 0-.477-.312l-4.706 3.725-2.55 2.035-1.234.984c-.33.263-.675.509-1.053.706-.74.36-1.778.46-2.37-.246a1.27 1.27 0 0 1-.214-1.264c0-.016.017-.033.017-.049s.033-.082.05-.115c.016-.033.081-.147.016-.05.032-.032.049-.081.082-.13l.033-.033a.358.358 0 0 1 .066-.082c.049-.066.115-.131.164-.18.148-.148.313-.263.494-.378.378-.263.79-.46 1.2-.69.807-.459 1.646-.935 1.959-1.854a1.74 1.74 0 0 0-.33-1.706 1.588 1.588 0 0 0-1.612-.525c-.411.115-.79.394-1.135.623l-1.234.788c-.84.541-1.662 1.1-2.468 1.674a85.276 85.276 0 0 0-4.805 3.61c-.329.262-.641.525-.954.787-.082.296-.164.591-.23.886a84.18 84.18 0 0 1 3.57-2.822 96.153 96.153 0 0 1 4.788-3.347l1.234-.788c.346-.213.658-.476 1.037-.558a1.311 1.311 0 0 1 1.349.59c.148.214.23.46.247.723v.033c-.05.016-.05.049-.05.082Zm-.066.197-.017.032c0-.016.017-.032.017-.032Z"/><path fill="#091E42" d="m161.539 157.692-8.046-2.002-16.009-4.004-11.781-2.937c-.279-.066-.576-.164-.855-.213-.708-.099-1.531.016-2.255.032l-4.327.082-17.112.312-34.24.624-4.228.065h-.033c-1.382.033-2.847.082-4.146.608a5.2 5.2 0 0 0-2.896 2.855c-.56 1.329-.609 2.773-.609 4.201 0 1.903.016 3.807.033 5.71.033 7.614.066 15.244.115 22.858.017 4.316.05 8.632.066 12.947 0 .05.033.115.082.132a102.069 102.069 0 0 0 20.057 8.467 107.17 107.17 0 0 0 20.962 4.07c1.777.164 3.554.295 5.347.361.905.032 1.827.114 2.732.082.938-.033 1.892-.099 2.83-.148l11.616-.624c.921-.049 1.859-.049 2.781-.18.888-.115 1.76-.246 2.649-.378 1.694-.262 3.389-.574 5.067-.919a109.984 109.984 0 0 0 10.251-2.609 107.157 107.157 0 0 0 19.251-7.991c.79-.427 1.563-.853 2.336-1.28a.966.966 0 0 0 .428-.788c.033-10.173.049-20.364.082-30.538 0-2.871.017-5.759.017-8.631-.017-.082-.083-.164-.165-.164Z"/><path fill="#238FF3" d="M159.746 82.455c-1.925-6.367-4.541-12.52-7.947-18.247-.083-.132-.231-.05-.379.082l-.049-.197c.214-.23.362-.64.181-.69v-.016a145.277 145.277 0 0 0-56.617-7.975 123.95 123.95 0 0 0-14.134 1.559c-4.492.771-8.95 1.887-13.146 3.692-7.404 3.184-13.426 8.582-18.181 15.015-4.756 6.432-8.326 13.57-11.683 20.774-.41.886-.822 1.772-1.234 2.658-.049.099-.131.361 0 .427l25.964 13.882 7.223 3.857-6.811 13.455c-2.271 4.48-4.624 8.911-6.796 13.44-1.514 3.134-3.159 7.384-1.267 10.699 1.991 3.495 6.565 3.643 10.103 3.889a677.847 677.847 0 0 0 30.521 1.493 682.43 682.43 0 0 0 30.686.131 659.57 659.57 0 0 0 30.67-1.263l3.784-.246c.28-.017.494-.394.527-.64 1.579-13.177 3.142-26.403 3.225-39.711.115-12.16-1.119-24.401-4.64-36.068Z"/><path fill="#fff" d="M106.65 37.41c-.461-2.789 1.07-5.66 3.39-7.269 2.32-1.608 5.314-2.379 8.095-1.903 2.418.427 4.804 1.46 6.598 3.692 2.649 3.315 2.418 6.498 2.435 8.402.016 2.05-.51 3.528-1.185 5.054-.987 2.231-3.06 3.905-5.413 4.578-2.353.673-4.92.41-7.141-.607s-4.08-2.724-5.446-4.759c0 0-2.896.492-4.426-1.444-1.53-1.936-1.201-3.692-.444-4.775.756-1.083 3.537-.968 3.537-.968Z"/><path fill="#091E42" d="M106.978 37.1c-.033-.247-.066-.477-.083-.723a4.054 4.054 0 0 1 0-.623c.017-.23.05-.476.083-.706l.033-.164c.016-.115-.017.05 0-.017l.016-.082c.033-.114.049-.23.099-.344.049-.115.066-.214.099-.312.016-.05.032-.115.065-.164l.033-.066c-.033.115 0-.016.017-.032a5.68 5.68 0 0 1 .296-.657l.033-.066.016-.032.017-.033.033-.066c.065-.098.131-.213.197-.312l.197-.295.05-.082c.049-.082 0 0-.017.016.033-.065.083-.115.132-.18l.444-.542.066-.065c.049-.05-.082.082 0 0l.115-.115c.083-.082.181-.164.264-.263.082-.082.164-.164.263-.23l.131-.098.066-.05c.066-.048-.049.034.033-.032.198-.148.395-.279.592-.41a10.752 10.752 0 0 1 2.781-1.297 10.635 10.635 0 0 1 3.044-.492c.987 0 1.974.132 2.929.378a10.332 10.332 0 0 1 4.952 2.888 10.44 10.44 0 0 1 2.666 5.382c.115.755.181 1.526.181 2.297.033.788 0 1.592-.066 2.38-.033.246-.066.492-.115.738a.795.795 0 0 0-.033.197c.016-.066-.017.066-.017.082a9.998 9.998 0 0 1-.098.377c-.066.23-.132.46-.214.69-.033.098-.066.213-.115.311-.017.05-.033.115-.066.164.033-.098.016-.032 0-.016l-.033.099c-.165.443-.362.886-.576 1.296l-.033.082c-.033.066.066-.115 0 0l-.082.131a5.167 5.167 0 0 0-.198.312l-.082.131c-.016.033-.131.18-.049.066-.066.098-.148.197-.214.295-.066.099-.132.164-.198.247l-.115.13-.049.05-.049.05c.033-.034.049-.05.016-.017-.164.164-.329.328-.51.492-.082.066-.165.148-.247.213l-.115.066c.066-.05.016 0 0 0l-.082.066a12.85 12.85 0 0 1-.593.41c-.197.131-.394.23-.592.345l-.082.032c-.017 0-.082.033-.033.017l-.148.065c-.115.05-.214.099-.329.148a8.57 8.57 0 0 1-1.382.46c-2.106.508-4.393.246-6.384-.608a12.638 12.638 0 0 1-4.739-3.61 12.038 12.038 0 0 1-.872-1.181c-.017-.033-.066-.066-.099-.066a5.78 5.78 0 0 1-1.596.017c-1.003-.115-2.024-.525-2.682-1.346a5.002 5.002 0 0 1-.987-1.87 4.968 4.968 0 0 1-.115-.87v-.148c0-.066 0-.148.016-.213 0-.066.017-.132.033-.197 0-.033.017-.05.017-.082-.017.082 0 0 .016-.033.017-.033.033-.115.05-.164.032-.066.049-.132.065-.18 0 0-.049.114-.016.032l.016-.033c.017-.033.017-.049.033-.082.033-.049.05-.115.083-.164.016-.033.032-.05.049-.082.016-.033-.066.099-.033.05l.016-.033c.033-.05.066-.099.099-.165l.049-.065.017-.033c.033-.05-.082.098-.033.05l.033-.05c.066-.082-.082.082-.017 0 .033-.033.066-.05.099-.082.033-.033-.066.05-.033.033l.033-.017.066-.049c.033-.033.082-.05.132-.082.049-.033.049-.033.065-.033.017 0-.032.017-.032.017l.049-.017a4.57 4.57 0 0 1 .658-.23c.115-.032.214-.049.329-.082l.099-.016h-.017.033l.181-.033a8.21 8.21 0 0 1 .642-.065c.263-.017.543-.017.806-.017h.033c.198 0 .395-.262.461-.426.049-.099.148-.444-.066-.444a8.112 8.112 0 0 0-1.991.18 3.42 3.42 0 0 0-1.366.542c-.46.361-.806.854-1.02 1.395a4.181 4.181 0 0 0-.312 1.838c.066.706.279 1.379.658 1.97a4.35 4.35 0 0 0 1.366 1.476c.477.296.987.492 1.53.59.428.083.872.132 1.316.132.23.017.477-.016.708-.05h.032l-.098-.065a13.763 13.763 0 0 0 4.492 4.267 10.99 10.99 0 0 0 6.416 1.477 9.46 9.46 0 0 0 5.578-2.462 8.772 8.772 0 0 0 1.892-2.494c.214-.443.412-.886.576-1.346.198-.476.362-.968.494-1.477.148-.525.247-1.05.296-1.591.049-.525.066-1.034.066-1.56 0-.705 0-1.41-.049-2.1a11.048 11.048 0 0 0-1.909-5.497 10.22 10.22 0 0 0-2.287-2.396 10.498 10.498 0 0 0-2.6-1.41 12.28 12.28 0 0 0-2.879-.69 10.421 10.421 0 0 0-3.192.148c-1.07.213-2.106.558-3.077 1.05-.938.46-1.81 1.067-2.567 1.789-1.481 1.46-2.55 3.446-2.665 5.53-.033.492 0 .984.066 1.46.032.213.263.115.361.017.116-.099.297-.361.264-.575Z"/><path fill="#091E42" d="M115.896 39.84v-.05.017c0-.033.017-.082.033-.115l-.016.033c.016-.017.016-.033.016-.05.05-.13-.049.066 0-.016.017-.033.033-.05.05-.082.049-.082-.083.098 0 0l.033-.05c-.05.05-.05.066-.017.033l.082-.082c.066-.049-.065.05.017-.016l.082-.05.099-.048c-.082.032.033-.017.049-.017a.934.934 0 0 0 .198-.065h.181c.279 0 .559.082.789.246.116.082.214.164.297.279.049.065.082.131.115.197.016.032.033.065.049.114 0 .017.033.115.033.066.017.066.033.131.132.131.098-.016.181-.049.23-.114a.808.808 0 0 0 .214-.312.518.518 0 0 0 .066-.312 1.586 1.586 0 0 0-1.201-1.149c-.642-.147-1.267.214-1.662.673-.28.328-.461.722-.527 1.149-.016.065 0 .164.066.213.066.033.148.017.214-.033a.91.91 0 0 0 .378-.59Zm-11.139-.263a1.978 1.978 0 0 0-.264 1.608c.132.394.428.722.823.886.181.082.378-.164.461-.295a.802.802 0 0 0 .131-.329c0-.065.017-.18-.065-.213a1.292 1.292 0 0 1-.692-.689.829.829 0 0 1-.065-.213c0-.05-.017-.099-.017-.148v-.082c0-.066.017-.098.017-.148 0-.049-.017.066 0 .017 0-.017.016-.033.016-.066s.017-.066.033-.082c-.016.016-.033.082 0 .033 0-.017.049-.099.016-.033-.032.066.017-.016.017-.016a.819.819 0 0 0 .132-.329c0-.065 0-.164-.066-.213-.165-.082-.395.213-.477.312Zm23.957-12.635c-1.02-1.543-2.961-2.347-4.771-2.298a3.98 3.98 0 0 0-.625.05c-.724-1.313-2.09-2.167-3.538-2.495a5.997 5.997 0 0 0-4.541.87 5.56 5.56 0 0 0-1.58 1.575 5.58 5.58 0 0 0-3.356.099 5.175 5.175 0 0 0-2.797 2.445 4.091 4.091 0 0 0-.461 1.395 6.865 6.865 0 0 0-3.093 2.494 5.282 5.282 0 0 0-.79 4.233c.214.82.609 1.576 1.168 2.2.132.147.329-.017.428-.148.049-.066.099-.132.131-.197l1.481.114c-.082.148-.115.312-.049.41l.016-.016c.346.542.889.952 1.317 1.444.049.05.098.115.131.165.05.049.099.164.165.196.115.017.214.033.329.017h.296l1.283.033a.533.533 0 0 0 .33-.197.774.774 0 0 0 .197-.443l.411-4.12c2.205.33 4.426.51 6.648.542 2.056.033 4.146 0 6.153-.426 1.728-.361 3.472-1.067 4.624-2.462a4.964 4.964 0 0 0 1.151-2.79c.116-.935-.131-1.886-.658-2.69Zm-11.419 19.379c-.198-.114-.461-.13-.593-.295-.131-.164-.213-.361-.345-.542a.642.642 0 0 0-.543-.279.492.492 0 0 0-.378.476c0 .214.065.427.213.608.362.508.922.82 1.531.87.197.016.411-.017.51-.181a.425.425 0 0 0-.165-.558 1.132 1.132 0 0 0-.609-.164"/><path fill="#091E42" d="M117.558 45.911a1.988 1.988 0 0 0-.329-.131.667.667 0 0 1-.148-.082.285.285 0 0 1-.115-.132c-.165-.23-.264-.508-.51-.672-.691-.493-1.366.59-1.317 1.198.05.525.527 1 .971 1.247.444.246 1.135.41 1.58.049.312-.263.559-.804.312-1.182-.181-.295-.543-.344-.855-.36-.313-.017-.741.836-.395.87.214 0 .411.048.592.163.033.017.049.05.066.066.016.016.016.033.033.066 0 .016.016.065.016.016v.05-.034c0 .033 0 .033 0 0 .05-.115.099-.213.181-.312l.033-.032c-.033.016-.033.016 0 0l-.049.016c-.083.033.016 0-.033 0h-.132c-.098 0-.197-.016-.312-.033a1.588 1.588 0 0 1-.527-.197 1.702 1.702 0 0 1-.823-.87c-.016-.032-.016-.065-.016-.114v-.083l-.016.05c.016-.033.016-.033 0 0-.017.033-.083.148-.033.066-.033.032-.05.065-.083.098.033-.033.033-.033 0 0s-.033.017 0 0c-.016.033-.033.017 0 0 .033-.016-.049 0 .033 0 .033 0 .066 0 .083.017a.588.588 0 0 1 .263.18c.164.197.247.443.428.623.148.148.378.181.559.28.181.098.378-.165.461-.296a.816.816 0 0 0 .131-.328c0-.066.017-.164-.066-.213l.017.016Zm6.089-6.514a.389.389 0 0 1-.148-.099l.049.05a.388.388 0 0 1-.098-.181l.016.066c-.016-.05-.016-.099-.016-.148v.082c0-.033 0-.066.016-.099l-.016.099c0-.017.016-.05.016-.066l-.049.115c0-.016.016-.033.033-.05l-.066.116c0-.017.016-.033.033-.033l-.083.115.033-.033-.082.082c.017-.016.033-.033.049-.033l-.082.066c.017-.017.033-.033.05-.033l-.083.033a.228.228 0 0 1 .099-.033l-.066.016a.407.407 0 0 1 .198.017l-.066-.017a.692.692 0 0 1 .23.148l-.049-.05c.049.05.066.1.098.165l-.016-.066a.215.215 0 0 1 .016.099v-.082c0 .032 0 .049-.016.082l.016-.099c0 .017-.016.05-.016.066l.049-.115c0 .017-.016.033-.033.05l.066-.116c-.016.017-.016.033-.033.05l.083-.115-.033.049.082-.082-.049.05.082-.066c-.017.016-.049.032-.066.049l.082-.033a.305.305 0 0 1-.115.033l.066-.017a.322.322 0 0 1-.214-.016l.066.016a.634.634 0 0 1-.23-.13l.049.048c-.017-.016-.033-.032-.033-.049-.033-.066-.115-.082-.181-.05a.727.727 0 0 0-.247.198.93.93 0 0 0-.181.328l-.016.098c-.017.05 0 .115.016.164a.652.652 0 0 0 .889.165c.115-.066.214-.165.296-.263.099-.115.181-.263.23-.41a.896.896 0 0 0 .033-.624c-.016-.049-.066-.098-.099-.147-.032-.05-.082-.082-.131-.115a.652.652 0 0 0-.346-.099.772.772 0 0 0-.477.23 1.42 1.42 0 0 0-.395.738.73.73 0 0 0 .05.46.512.512 0 0 0 .263.262.204.204 0 0 0 .23-.049.94.94 0 0 0 .247-.262.819.819 0 0 0 .132-.328c-.05-.05-.05-.165-.132-.197Zm-3.275 1.886 1.399 2.216c.049.082.099.164.148.262.016.033.033.066.033.082v.066a.156.156 0 0 1 .033-.148c.016-.049.049-.082.082-.131.049-.05.049-.066.016-.033.083-.082-.016 0-.032.017l-.05.033-.148.065-1.168.558a.852.852 0 0 0-.428.525.36.36 0 0 0 0 .263c.033.065.115.082.181.049l1.037-.492c.164-.082.345-.148.493-.247a1.36 1.36 0 0 0 .527-.574.918.918 0 0 0 .066-.69c-.066-.163-.165-.31-.264-.459l-.625-.984-.707-1.116c-.181-.295-.774.476-.593.738Z"/><path fill="#88EFD7" d="M130.046 33.21c-4.08.853-7.272 3.89-9.23 7.417a15.771 15.771 0 0 0-1.399 11.733c.675 2.461 1.728 5.35 3.39 7.27 2.336 2.723 5.035 4.364 9.263 4.873 3.571.427 7.404-.164 10.086-2.544 2.337-2.067 3.62-5.07 4.311-8.106.773-3.462.839-7.138-.164-10.551-1.004-3.413-3.127-6.531-6.121-8.451-2.995-1.92-6.927-2.839-10.267-1.592"/><path fill="#fff" d="M130.474 35.508c-3.472.722-6.187 3.314-7.849 6.317a13.382 13.382 0 0 0-1.184 9.993c.576 2.085 1.464 4.546 2.879 6.203 1.991 2.314 4.278 3.709 7.898 4.136 3.044.36 6.302-.132 8.589-2.167 1.991-1.755 3.093-4.315 3.669-6.908.658-2.954.724-6.071-.132-8.976-.855-2.904-2.682-5.546-5.248-7.187-2.567-1.641-5.891-2.412-8.737-1.362"/><path fill="#091E42" d="M130.607 35.097c-2.55.542-4.755 2.1-6.417 4.07a14.743 14.743 0 0 0-3.422 7.564 13.462 13.462 0 0 0 .098 4.3c.132.689.313 1.362.527 2.018.197.656.428 1.296.674 1.936.494 1.247 1.119 2.462 2.008 3.48a12.76 12.76 0 0 0 2.517 2.28c2.073 1.395 4.64 1.97 7.125 1.97 2.682.015 5.413-.74 7.387-2.643 2.073-2.002 3.176-4.759 3.752-7.515.625-3.02.608-6.22-.346-9.173-.806-2.478-2.303-4.759-4.393-6.334a12.047 12.047 0 0 0-3.62-1.87 10.03 10.03 0 0 0-4.064-.46 7.932 7.932 0 0 0-1.941.443.81.81 0 0 0-.428.525c-.033.131-.033.394.181.312 2.517-.936 5.364-.394 7.7.82a12.126 12.126 0 0 1 5.199 5.432c1.267 2.56 1.679 5.48 1.432 8.32a19.728 19.728 0 0 1-.806 4.15c-.05.148-.099.296-.148.46-.033.082-.05.164-.083.246-.016.033-.033.066-.033.099s-.065.164-.032.065a9.292 9.292 0 0 1-.395.92c-.066.147-.132.295-.214.426l-.099.197c-.066.131.049-.082-.016.033l-.083.147c-.164.28-.329.575-.526.837l-.05.066c-.082.115.066-.082-.016.033l-.148.197c-.099.13-.214.262-.329.394-.05.049-.099.114-.132.164l-.082.098-.049.05a.951.951 0 0 0-.05.048l-.098.099-.181.18a6.278 6.278 0 0 1-.346.312l-.197.164c.049-.049-.05.033-.05.033l-.099.082c-.263.18-.526.361-.806.525a9.794 9.794 0 0 1-3.554 1.133 14.23 14.23 0 0 1-3.916-.05 13.19 13.19 0 0 1-3.455-.968 10.96 10.96 0 0 1-2.748-1.821 11.205 11.205 0 0 1-2.237-2.74 18.89 18.89 0 0 1-1.547-3.726 15.285 15.285 0 0 1-.724-3.938 13.078 13.078 0 0 1 .494-3.987c.181-.657.411-1.28.707-1.887.066-.148.148-.296.214-.444l.066-.114c0-.017.016-.033.033-.05.033-.065.082-.147.115-.213.148-.263.313-.525.477-.788.082-.13.165-.246.247-.36l.115-.165.016-.016.099-.131a11.511 11.511 0 0 1 .856-1.034l.148-.164.033-.033.082-.082c.214-.213.444-.427.658-.64.115-.098.214-.197.329-.279l.181-.148.066-.049c-.049.05.066-.05.066-.05.247-.18.493-.36.757-.524a9.576 9.576 0 0 1 1.579-.82c.543-.23 1.119-.395 1.695-.526a.575.575 0 0 0 .247-.197.93.93 0 0 0 .181-.328c.033-.213.016-.41-.181-.361Z"/><path fill="#fff" d="M141.565 49.176c-.017-2.838.115-6.432-.346-10.518a11.39 11.39 0 0 0-2.106-1.756c-2.55-1.624-5.89-2.412-8.737-1.362l.115-.049c-3.471.722-6.186 3.315-7.848 6.318a13.387 13.387 0 0 0-1.185 9.993c.576 2.084 1.465 4.545 2.88 6.203 1.991 2.313 4.278 3.708 7.897 4.135 2.682.312 5.545-.033 7.767-1.526a39.523 39.523 0 0 0 1.563-11.438Z"/><path fill="#091E42" d="M141.894 48.881c-.016-2.904.033-5.809-.181-8.697-.033-.41-.066-.82-.115-1.23-.016-.099-.016-.214-.033-.312 0-.115-.016-.23-.049-.329a1.333 1.333 0 0 0-.214-.213c-.082-.082-.148-.164-.23-.23a12.539 12.539 0 0 0-1.81-1.41 11.959 11.959 0 0 0-4.015-1.593 8.942 8.942 0 0 0-4.739.296l-.246.853.115-.049a.811.811 0 0 0 .428-.525c.049-.164.032-.361-.181-.312a10.893 10.893 0 0 0-4.756 2.396 15.306 15.306 0 0 0-3.422 4.184 14.451 14.451 0 0 0-1.777 5.858 13.277 13.277 0 0 0 .099 3.02 18.6 18.6 0 0 0 .691 2.822c.559 1.772 1.3 3.594 2.534 5.038a12 12 0 0 0 3.685 2.986c1.596.805 3.39 1.182 5.15 1.297 1.942.115 3.949-.115 5.726-.92a7.692 7.692 0 0 0 1.3-.721c.329-.214.395-.575.494-.92.065-.229.131-.442.181-.672.246-.935.46-1.87.641-2.822.379-2.002.593-4.037.658-6.072.05-.607.05-1.165.066-1.723-.016-.23-.279-.098-.378-.016a.82.82 0 0 0-.28.623 37.89 37.89 0 0 1-.247 4.743 32.36 32.36 0 0 1-.312 2.198l-.198 1.034c-.066.345-.131.64-.214 1.001-.181.755-.378 1.51-.608 2.265l.345-.492a9.687 9.687 0 0 1-4.163 1.476c-1.513.18-3.06.115-4.557-.18a11.352 11.352 0 0 1-3.669-1.346 11.605 11.605 0 0 1-2.831-2.38c-.97-1.099-1.661-2.428-2.188-3.79a17.866 17.866 0 0 1-1.185-4.315 13.424 13.424 0 0 1-.098-2.298 9.44 9.44 0 0 1 .115-1.181c.033-.197.049-.378.082-.558l.099-.525c.082-.378.197-.771.313-1.132.065-.18.115-.361.181-.542l.016-.033.016-.049c.017-.033.033-.082.05-.131.033-.082.066-.18.115-.28l.247-.54c.033-.083.082-.165.115-.247l.066-.115c.016-.032.033-.049.033-.082s.033-.049 0 0c.164-.295.345-.59.526-.886l.296-.443c.05-.066.099-.131.132-.197l.033-.05c-.066.083-.017.034 0 0l.082-.114c.198-.279.412-.541.642-.804l.345-.394.033-.033.083-.082.197-.197a9.96 9.96 0 0 1 .757-.689l.197-.164.099-.082.049-.033c.05-.049-.049.033.017 0 .131-.115.28-.213.411-.311.28-.197.56-.378.856-.542a9.835 9.835 0 0 1 1.859-.82c.329-.099.658-.197.987-.263l.247-.853-.115.049a.81.81 0 0 0-.428.525c-.033.131-.033.394.181.312a8.392 8.392 0 0 1 4.41-.312c1.481.279 2.912.837 4.179 1.657a10.877 10.877 0 0 1 2.122 1.756l-.065-.115c.312 2.84.362 5.694.345 8.533v1.97c0 .229.28.098.362.016.181-.099.28-.312.296-.542Z"/><path fill="#091E42" d="M130.837 47.273c-1.102-.41-1.349-2.15-.395-2.839.954-.689 2.534.05 2.616 1.215a1.748 1.748 0 0 1-1.217 1.706 1.868 1.868 0 0 1-1.991-.705"/><path fill="#091E42" d="M131.1 46.863a1.188 1.188 0 0 1-.411-.246l-.083-.082-.032-.033c.016.016-.017-.033-.017-.033l-.148-.197c-.033-.066-.082-.131-.099-.197l-.049-.098-.017-.05c0-.016 0-.032-.016-.049 0 .033.016.033 0 .017a1.49 1.49 0 0 1-.066-.46v-.164c0-.033.017-.082.017-.115 0-.016.016-.082 0-.016-.017.065 0-.017.016-.033.017-.016.017-.066.033-.115.016-.066-.016.05-.016.05l.032-.066c.017-.05.099-.164 0 0 .017-.017.05-.115.066-.115.017 0-.082.115-.033.05l.033-.05c.017-.017.033-.033.033-.05-.066.1-.049.05-.033.033.017-.016.066-.049.083-.082.016-.032-.083.066-.017.017l.066-.033a.33.33 0 0 1 .099-.066l-.033.017.049-.017.049-.016c.083-.033.165-.05.247-.082.066-.017-.033 0 .017 0h.164c.083 0 .165 0 .263.016.083.017.165.017.231.05l.049.016.033.016c.033.017.082.033.132.05.148.065.296.147.428.246.065.049.131.098.181.147.016.017.082.082.049.05a.281.281 0 0 1 .082.114c.099.132.165.28.214.427.017.05-.016-.066 0 0 0 .017 0 .033.017.05a.286.286 0 0 1 .016.114v.23c0 .033 0 .05-.016.082-.017.082 0-.016 0-.016a.307.307 0 0 1-.033.13l-.017.034c-.016.049-.016.032.017-.033-.017.016-.017.033-.017.05-.016.032-.033.048-.033.081-.033.082.066-.098 0-.016-.033.032-.049.082-.082.131.066-.115.049-.066.016-.033l-.049.05c-.016.016-.066.082-.016.016.049-.066-.017 0-.017.016l-.049.033c-.017.017-.099.115-.033.033a.356.356 0 0 1-.132.082l-.066.033c-.016.016-.082.032-.016.016-.099.05-.214.082-.329.115l-.049.016h-.231c-.115 0-.214-.016-.329-.032a1.763 1.763 0 0 1-1.086-.69c-.115-.164-.345.033-.428.132a.93.93 0 0 0-.181.328c-.016.082-.049.197 0 .262.28.394.708.673 1.169.788.477.115.97.033 1.398-.197a2.574 2.574 0 0 0 1.086-1.28 1.821 1.821 0 0 0-.839-2.412 2.012 2.012 0 0 0-.921-.18c-.988.049-1.695.935-1.86 1.854-.131.804.198 1.788 1.02 2.117.181.065.379-.165.461-.296a.818.818 0 0 0 .132-.328c-.033.017-.017-.098-.099-.131Zm1.431 18.395 1.201 3.708c.016.066.132.066.181.05a.574.574 0 0 0 .247-.198c.131-.164.246-.393.181-.607l-1.201-3.708c-.033-.066-.132-.066-.181-.05a.727.727 0 0 0-.247.197c-.132.165-.247.394-.181.608Zm5.43-.706-1.201 3.938c-.033.132-.033.394.181.312a.852.852 0 0 0 .428-.525l1.201-3.938c.033-.131.033-.394-.181-.312a.811.811 0 0 0-.428.525Z"/><path fill="#88EFD7" d="M135.971 68.638c.592 10.043 1.563 28.618 2.155 38.661l-2.155-38.661Z"/><path fill="#88EFD7" d="M133.848 70.574c.131 2.248.263 4.48.378 6.728l.444 7.926.461 8.352a23472 23472 0 0 0 .444 8.008l.395 6.892.049.738c0 .46.362.837.823.887.263 0 .527-.066.741-.214a2.46 2.46 0 0 0 .806-.558 6.123 6.123 0 0 0 1.431-2.002c.28-.64.477-1.28.428-1.985-.132-2.248-.263-4.48-.378-6.728l-.445-7.926c-.148-2.79-.312-5.563-.46-8.352-.148-2.675-.296-5.35-.445-8.008l-.394-6.892-.05-.738c0-.46-.362-.837-.822-.886-.264 0-.527.065-.741.213a2.452 2.452 0 0 0-.806.558 6.425 6.425 0 0 0-1.448 2.002c-.263.64-.444 1.296-.411 1.985Z"/><path fill="#fff" d="M140.299 121.69c2.863 7.926 6.071 16.737 10.234 23.301s9.05 11.208 16.569 13.21c7.519 2.002 16.404-.263 20.896-6.597 3.307-4.677 3.867-10.863 2.781-16.475-1.086-5.612-3.653-10.83-6.203-15.966l-11.09-22.4c-4.903-9.878-9.806-19.789-15.944-28.962-1.119-1.657-2.32-3.347-4.064-4.332-1.744-.984-4.163-1.066-5.578.345-1.332 1.329-.789 2.642 0 4.348.79 1.707 1.712 3.758 2.896 5.842a71.131 71.131 0 0 0-15.153 1.346c-1.728.344-3.472.77-5.002 1.64-1.531.87-2.83 2.281-3.225 4.004-.412 1.789.378 3.89 2.089 4.611a4.918 4.918 0 0 0-.395.444c-.822 1.017-1.299 2.379-.987 3.659.329 1.329 1.646 2.445 3.028 2.199-.905.82-1.563 2.018-1.465 3.249.099 1.23 1.382 3.068 2.6 3.068-.724.46-1.333 1.05-1.629 1.855-.51 1.378.082 2.986 1.168 3.971 1.086.984 2.551 1.444 4.015 1.641 1.086.147 2.254.147 3.241-.312a3.065 3.065 0 0 0 1.613-1.772 196.384 196.384 0 0 1 10.728 17.755"/><path fill="#091E42" d="M151.173 73.561a72.1 72.1 0 0 0-7.042.197 66.23 66.23 0 0 0-6.96.902c-2.155.378-4.376.788-6.318 1.855-1.711.935-3.208 2.51-3.702 4.447-.428 1.64 0 3.577 1.382 4.644.165.13.329.23.51.328s.379-.164.461-.296c.082-.13.247-.46.066-.541a3.438 3.438 0 0 1-1.563-1.674 3.627 3.627 0 0 1-.329-1.116 3.818 3.818 0 0 1-.05-.623v-.066c0 .066 0 0 0 0v-.164c0-.098.017-.197.033-.295l.05-.296c-.017.082 0 .017 0-.016s.016-.05.016-.082c.016-.05.033-.115.049-.164.033-.099.066-.197.099-.312 0-.017.017-.082 0 .016 0-.016.017-.049.033-.065l.066-.164a2.38 2.38 0 0 0 .131-.296s.05-.115.017-.033.016-.032.016-.032l.099-.148c.049-.099.115-.18.181-.263l.033-.065c.049-.082 0 0-.017.016.033-.05.083-.115.116-.164.065-.082.131-.164.197-.23l.115-.131.05-.05c.082-.098-.066.066.016-.016.148-.164.313-.311.477-.46a2.6 2.6 0 0 0 .231-.196l.016-.016.066-.05.148-.115c.181-.13.362-.246.559-.36 1.777-1.067 3.916-1.477 5.957-1.855a71.594 71.594 0 0 1 6.746-.919 72.697 72.697 0 0 1 6.811-.262l.823.016c.214 0 .395-.262.461-.427.049-.098.164-.443-.05-.459Z"/><path fill="#091E42" d="M143.523 80.699a24.36 24.36 0 0 0-5.002.46c-1.629.328-3.225.82-4.755 1.476-.757.328-1.514.69-2.222 1.1-.691.394-1.332.853-1.925 1.394-1.184 1.133-2.089 2.757-1.908 4.431.131 1.346 1.168 2.626 2.566 2.806.165.016.313.033.478.016.213-.016.378-.246.46-.426.033-.082.148-.46-.066-.443a2.476 2.476 0 0 1-1.711-.558 2.994 2.994 0 0 1-.609-.673 3.386 3.386 0 0 1-.23-.41c-.033-.066-.066-.148-.099-.213-.016-.033-.033-.066-.033-.115 0-.017-.016-.033-.016-.05v-.016a3.353 3.353 0 0 1-.099-.525c0-.082-.016-.164-.016-.246v-.23c.016-.18.033-.36.066-.541-.017.082 0-.017.016-.05.017-.032.017-.082.033-.131.033-.098.049-.18.082-.279.017-.033.05-.164.017-.05.016-.032.033-.065.049-.114.033-.082.082-.18.115-.263l.066-.114c.017-.017.017-.033.033-.066 0 .016-.066.098-.016.033.049-.066.098-.164.131-.23s.099-.148.148-.23c0 .017-.066.099-.016.033l.033-.05c.033-.032.066-.081.098-.114.05-.066.116-.131.165-.197l.099-.098c.016-.017.066-.066-.017.016l.066-.066c.132-.13.263-.262.395-.377.066-.066.132-.115.214-.18.033-.033.066-.05.099-.083.065-.049 0 0 0 0l.082-.065c.296-.213.609-.427.921-.624a21.046 21.046 0 0 1 2.008-1.034 23.325 23.325 0 0 1 4.574-1.51 22.885 22.885 0 0 1 4.722-.54h.592c.214 0 .395-.263.461-.427.049-.082.164-.427-.049-.427Z"/><path fill="#091E42" d="M143.407 87.755a29.432 29.432 0 0 0-4.639.607 27.389 27.389 0 0 0-4.41 1.362c-1.382.558-2.748 1.23-3.735 2.363a5.411 5.411 0 0 0-1.119 1.986 3.566 3.566 0 0 0-.066 1.903c.165.574.428 1.1.807 1.559.329.427.756.853 1.283 1.034.115.049.247.082.378.098.083.017.181-.065.231-.115a.83.83 0 0 0 .214-.311c.049-.115.148-.41-.066-.444a1.823 1.823 0 0 1-.296-.065 1.995 1.995 0 0 1-.329-.164 2.495 2.495 0 0 1-.609-.492 4.16 4.16 0 0 1-.872-1.379 2.425 2.425 0 0 1-.198-.673c-.016-.049-.016-.115-.016-.164v-.213c0-.148.016-.312.049-.46 0-.016.033-.147 0-.049.017-.033.017-.065.017-.098.016-.082.049-.164.065-.246.017-.033.017-.066.033-.099.017-.033.017-.05.017-.066s-.033.083-.017.033c.033-.082.066-.147.099-.23l.066-.114.016-.05c.033-.049-.033.05-.016.033.049-.082.082-.147.132-.23a2.05 2.05 0 0 1 .131-.196c.05-.066-.049.065 0 0l.082-.115c.05-.066.099-.115.149-.18l.082-.1.033-.032c.115-.115.23-.23.362-.345a1.69 1.69 0 0 1 .181-.147c.066-.05.016-.017 0 0l.049-.05.115-.082c.132-.098.28-.196.428-.278.559-.345 1.168-.64 1.777-.887a25.415 25.415 0 0 1 4.229-1.362 26.122 26.122 0 0 1 4.36-.656c.181-.016.378-.016.559-.033.214-.016.379-.262.461-.426.066-.066.197-.427-.017-.427Z"/><path fill="#091E42" d="M144.756 94.155a74.121 74.121 0 0 0-4.212.935 70.157 70.157 0 0 0-4.146 1.165c-1.185.361-2.386.722-3.489 1.28-1.036.525-1.974 1.296-2.468 2.38a3.805 3.805 0 0 0 .181 3.445c.576 1.05 1.58 1.789 2.682 2.232.593.23 1.185.394 1.81.509.642.115 1.284.18 1.925.164a4.91 4.91 0 0 0 1.925-.427 3.937 3.937 0 0 0 1.448-1.198 3.253 3.253 0 0 0 .675-1.887c0-.558-.198-1.083-.543-1.51a2.873 2.873 0 0 0-1.366-.951 4.17 4.17 0 0 0-2.007-.099 4.767 4.767 0 0 0-.938.279.814.814 0 0 0-.428.525c-.033.132-.033.394.181.312 1.103-.427 2.402-.525 3.423.181.427.279.756.689.937 1.165l.033.082c0 .016 0 .033.017.033l.049.196a.654.654 0 0 1 .017.181v.148c0 .049 0-.05 0 0 0 .049 0 .115-.017.18-.016.066 0 .066-.016.099-.017.032 0 .032 0 .049-.017.049.016-.066 0-.017-.017.05-.033.115-.05.165 0 .032-.016.049-.033.082-.016.065.033-.082.017-.033 0 .016-.017.033-.017.049a.74.74 0 0 1-.082.164c0 .016-.016.033-.016.033s.049-.099.033-.049l-.066.098-.05.082-.032.033.032-.049c-.032.049-.082.098-.115.164-.033.065-.049.049-.066.082-.016.033.033-.033.033-.033l-.033.033a1.03 1.03 0 0 1-.148.131l-.082.066c-.016.016-.082.065-.033.033.05-.033-.033.016-.049.032l-.082.066a1.878 1.878 0 0 1-.346.197c.049-.033 0 0-.033.016l-.115.05a1.252 1.252 0 0 1-.214.082c-.28.098-.576.164-.872.213a8.094 8.094 0 0 1-1.892-.033 8.594 8.594 0 0 1-1.695-.361c-1.069-.328-2.139-.919-2.813-1.821a4.079 4.079 0 0 1-.412-.673 2.568 2.568 0 0 1-.164-.377c-.017-.066-.05-.132-.066-.197a.354.354 0 0 0-.017-.066s-.016-.066-.016-.082a4.282 4.282 0 0 1-.115-.788v-.147c0-.066 0-.132.016-.197 0-.066.017-.115.033-.181 0-.016.017-.131.017-.065 0 .065.016-.05.016-.066.017-.066.033-.115.049-.181l.033-.098a.415.415 0 0 1-.016.049s.016-.033.016-.05c.017-.048.05-.097.066-.163l.05-.082c.032-.05-.033.049-.033.049l.033-.05c.032-.048.049-.098.082-.147l.049-.066.033-.049c0 .017-.066.099-.033.033a1.94 1.94 0 0 1 .23-.279c.05-.066-.065.066 0 0l.066-.066c.05-.049.099-.098.148-.13.05-.034.083-.083.132-.116l.066-.049s.049-.033 0 0l.016-.016c.198-.148.412-.296.642-.41.049-.033.115-.066.165-.099l.082-.05.033-.016.033-.016.049-.033.099-.05.181-.081a6.6 6.6 0 0 1 .724-.296c.559-.213 1.151-.393 1.727-.574 1.3-.41 2.616-.804 3.949-1.148a88.169 88.169 0 0 1 3.998-.936l.988-.197a.57.57 0 0 0 .246-.197.915.915 0 0 0 .181-.328.36.36 0 0 0 0-.262c-.033-.066-.115-.066-.181-.05l-.049.05Z"/><path fill="#091E42" d="M140.429 104.148a175.602 175.602 0 0 1 4.064 6.252 211.97 211.97 0 0 1 3.817 6.4 194.237 194.237 0 0 1 3.571 6.547 194.79 194.79 0 0 1 3.323 6.679c1.07 2.248 2.09 4.512 3.061 6.793l.362.854c.082.196.362-.066.427-.148.116-.148.264-.394.181-.607a207.447 207.447 0 0 0-3.027-6.81 208.352 208.352 0 0 0-3.291-6.695 193.252 193.252 0 0 0-7.322-12.98 192.268 192.268 0 0 0-4.031-6.269l-.526-.771c-.181-.279-.774.493-.609.755Z"/><path fill="#091E42" d="M151.092 73.61a62.933 62.933 0 0 1-2.189-4.332c-.312-.657-.625-1.313-.905-1.986-.263-.59-.526-1.214-.559-1.87-.066-1.362 1.431-2.1 2.616-2.232a5.506 5.506 0 0 1 3.636.968c1.218.82 2.156 1.986 2.995 3.184.905 1.296 1.76 2.642 2.6 3.97 1.744 2.774 3.389 5.613 4.985 8.468 3.208 5.792 6.137 11.733 9.082 17.673l9.297 18.739c2.912 5.859 6.153 11.75 7.601 18.182 1.267 5.579 1.053 11.897-2.221 16.771-2.814 4.184-7.717 6.563-12.636 7.17-5.101.608-10.284-.689-14.644-3.347-4.41-2.691-7.7-6.761-10.366-11.109-3.307-5.399-5.742-11.29-7.963-17.197a486.369 486.369 0 0 1-1.646-4.48c-.098-.279-.724.427-.609.738 2.271 6.302 4.64 12.603 7.799 18.51 2.584 4.825 5.743 9.534 10.136 12.898 4.13 3.167 9.362 5.07 14.594 5.005 5.068-.066 10.251-1.904 13.821-5.579 4.097-4.218 5.496-10.223 5.019-15.934-.543-6.613-3.505-12.717-6.401-18.575-3.208-6.499-6.433-12.98-9.642-19.478-3.076-6.203-6.12-12.439-9.395-18.527-1.645-3.035-3.34-6.055-5.133-8.992a152.154 152.154 0 0 0-2.781-4.381c-.806-1.215-1.629-2.445-2.665-3.48-1.777-1.788-4.723-2.936-7.026-1.377-1.004.689-1.761 1.82-1.678 3.068.098 1.346.921 2.658 1.464 3.856a65.433 65.433 0 0 0 2.238 4.414c.131.296.74-.46.576-.738Z"/><path fill="#fff" d="M38.055 98.159c-.197.36-.395.705-.576 1.066a225.397 225.397 0 0 0-15.4 35.412c-1.317 3.889-2.518 8.073-1.448 12.044.74 2.757 2.534 5.087 4.31 7.302a179.945 179.945 0 0 0 31.707 30.538c3.258 2.445 6.746 4.841 10.744 5.58 5.529 1.017 11.501-1.576 14.71-6.252 3.208-4.677 6.532-4.595 3.948-9.649-1.596-3.118-6.367-10.338-8.852-12.767-5.133-5.021-12.438-13.029-17.556-18.017l10.876-26.469"/><path fill="#091E42" d="M37.857 98.027a233.053 233.053 0 0 0-9.345 19.101 214.826 214.826 0 0 0-3.998 9.911c-1.235 3.299-2.469 6.613-3.472 9.977-.971 3.266-1.646 6.81-.675 10.158.922 3.167 3.11 5.743 5.167 8.237a179.922 179.922 0 0 0 28.958 28.06c4.854 3.742 10.3 7.942 16.816 7.171a15.691 15.691 0 0 0 10.513-6.022c.478-.624.905-1.296 1.416-1.904.444-.541.937-1.05 1.43-1.542 1.432-1.428 2.995-2.905 2.551-5.103-.23-1.149-.806-2.216-1.382-3.233a50.6 50.6 0 0 0-1.727-2.855c-1.366-2.15-2.798-4.267-4.344-6.285-1.366-1.789-2.945-3.315-4.525-4.907-4.245-4.299-8.358-8.729-12.587-13.045a452.394 452.394 0 0 0-2.764-2.773v.426l3.685-8.976 5.841-14.243 1.35-3.265c.246-.608-.346-.443-.527-.017l-3.686 8.976-5.84 14.26-1.35 3.265c-.05.132-.115.312 0 .427 4.114 4.02 8.03 8.238 12.011 12.389 1.86 1.936 3.768 3.84 5.66 5.743 1.514 1.527 2.781 3.348 4.015 5.104 1.366 1.953 2.682 3.971 3.867 6.038.543.952 1.102 1.92 1.448 2.954.296.919.395 1.887-.165 2.708-.592.869-1.448 1.559-2.172 2.313a19.441 19.441 0 0 0-1.349 1.527c-.46.59-.872 1.23-1.35 1.805a14.705 14.705 0 0 1-6.712 4.66 14.213 14.213 0 0 1-8.145.328c-3.11-.82-5.874-2.593-8.457-4.463a171.882 171.882 0 0 1-15.12-12.488A178.34 178.34 0 0 1 29.12 158.25c-2.122-2.445-4.31-4.906-6.12-7.581-.889-1.329-1.678-2.757-2.09-4.316a13.245 13.245 0 0 1-.296-5.021c.395-3.446 1.678-6.761 2.83-10.026a221.657 221.657 0 0 1 3.686-9.698 227.502 227.502 0 0 1 8.704-18.871c.773-1.51 1.58-2.987 2.385-4.48.066-.115.23-.427.066-.541-.164-.115-.378.197-.428.311Z"/><path fill="#091E42" d="M59.906 189.526c10.317-4.726 18.395-14.063 21.571-24.926l15.384 1.576-6.4 36.347-24.944-5.891-5.61-7.106Z"/><path fill="#fff" d="M81.18 164.699a25.106 25.106 0 0 1-.494 1.575c-.082.263-.18.525-.28.788-.049.115-.082.23-.13.361 0 .016-.05.131-.017.033a.226.226 0 0 0-.033.098c-.033.066-.05.148-.082.213a40.27 40.27 0 0 1-1.317 3.003c-.115.246-.247.493-.378.739l-.181.328c-.033.066-.066.115-.099.18-.016.033-.033.05-.05.082.067-.114-.016.033-.032.05-.263.476-.527.935-.806 1.411-.28.459-.576.935-.889 1.411-.148.23-.313.46-.46.689l-.215.312c-.032.049-.082.115-.115.164l-.049.082c-.016.017-.115.164-.033.049a37.757 37.757 0 0 1-2.024 2.593c-.362.427-.724.837-1.102 1.247l-.263.279c-.083.099.065-.065-.017.017l-.05.049-.164.18a9.64 9.64 0 0 1-.576.575 39.615 39.615 0 0 1-2.435 2.248 32.67 32.67 0 0 1-2.534 1.969 43.8 43.8 0 0 1-2.747 1.805 40.45 40.45 0 0 1-2.863 1.542l-.74.345a.85.85 0 0 0-.428.525c-.033.115-.033.41.18.312a39.271 39.271 0 0 0 5.842-3.315 40.604 40.604 0 0 0 5.215-4.25 41.678 41.678 0 0 0 8.112-10.863 40.518 40.518 0 0 0 2.583-6.235l.247-.788c.033-.131.033-.378-.181-.312s-.378.328-.428.525l.033-.016Zm55.563 2.724a39.569 39.569 0 0 0 2.402 6.17 39.582 39.582 0 0 0 3.406 5.677 40.826 40.826 0 0 0 4.311 5.071 40.557 40.557 0 0 0 5.051 4.299 38.225 38.225 0 0 0 5.693 3.397c.247.115.493.246.757.361.181.082.378-.164.46-.295.05-.099.247-.46.066-.542a39.241 39.241 0 0 1-5.775-3.282 40.507 40.507 0 0 1-12.998-14.735 38.558 38.558 0 0 1-2.518-6.088l-.247-.788c-.016-.066-.131-.066-.181-.049a.573.573 0 0 0-.246.197.715.715 0 0 0-.181.607Zm-53.705-2.15a1004.407 1004.407 0 0 0 59.612-.755 944.632 944.632 0 0 0 16.717-.853c.329-.016.707-.886.395-.87a1002.782 1002.782 0 0 1-59.595 1.773c-5.578 0-11.156-.05-16.734-.148-.312-.016-.74.853-.395.853Zm30.621 1.608-.231 15.819-.23 15.736-.132 8.878c0 .18.099.279.28.18a.833.833 0 0 0 .362-.59l.23-15.819.231-15.737.131-8.877c0-.181-.098-.279-.279-.181a.837.837 0 0 0-.362.591Z"/><path fill="#fff" d="M119.139 167.177c.032.738.065 1.476.082 2.215.033 1.017.049 2.018.066 3.036.033 1.198.049 2.395.065 3.593.017 1.28.033 2.56.033 3.84v3.856c0 1.165-.033 2.298-.049 3.512-.033.985-.066 1.985-.115 2.97a23.607 23.607 0 0 1-.181 2.15c-.017.115-.033.246-.05.361 0 .033-.016.049-.016.082v.033c-.016.065.033-.115.016-.05-.016.066-.016.082-.032.132-.017.065-.05.147-.066.213l-.05.131-.033.082s.033-.065 0-.016c-.032.098-.065.18-.115.262-.049.082-.066.164-.115.247l-.049.114c.049-.098-.017.033-.033.05-.033.065-.082.131-.115.197l-.066.114c-.033.033-.082.115-.017.033a3.672 3.672 0 0 1-.329.394l-.049.049-.066.066a1.892 1.892 0 0 1-.197.18c-.066.05-.115.099-.165.148l-.099.082h.017l-.066.049c-.132.099-.28.197-.428.296a8.108 8.108 0 0 1-1.892.837c-.362.115-.724.213-1.086.295-.214.049-.378.345-.428.525-.049.148-.033.361.181.312 1.448-.328 2.88-.853 4.015-1.854a6.203 6.203 0 0 0 1.925-3.299c.115-.59.181-1.198.214-1.805.066-.935.115-1.854.132-2.789.033-1.149.065-2.314.065-3.463.017-1.296.017-2.592.017-3.889 0-1.312 0-2.625-.017-3.938l-.049-3.758c-.016-1.083-.049-2.166-.066-3.249-.016-.837-.049-1.657-.082-2.494l-.016-.46c-.017-.229-.264-.098-.362-.016-.214.181-.329.394-.329.624Zm-6.764-107.564.527 37.79.526 37.595.296 21.201c0 .23.28.098.362.016a.82.82 0 0 0 .28-.623l-.527-37.775-.526-37.577-.296-21.201c0-.23-.28-.099-.362-.017a.754.754 0 0 0-.28.59Zm-8.802-1.903 3.9 3.002 1.102.854c.115.098.313-.115.378-.197l3.143-3.66a.93.93 0 0 0 .181-.328.36.36 0 0 0 0-.262c-.099-.18-.346.049-.428.147l-3.142 3.66.378-.197-3.9-3.003-1.102-.853c-.066-.05-.164 0-.214.032a.76.76 0 0 0-.247.263c-.065.131-.214.426-.049.541Z"/><path fill="#fff" d="m112.113 57.71 3.883 3.002 1.102.854c.115.098.313-.115.379-.197l3.142-3.66a.93.93 0 0 0 .181-.328.36.36 0 0 0 0-.262c-.099-.18-.345.049-.428.147l-3.142 3.66.378-.197-3.899-3.003-1.103-.853c-.066-.05-.164 0-.214.032a.936.936 0 0 0-.246.263c-.05.131-.198.426-.033.541Zm-3.587 16.688 2.418-.246c.214-.017.379-.246.461-.427.033-.082.148-.46-.066-.443l-2.418.246c-.214.017-.379.246-.461.427-.033.082-.165.46.066.443Zm6.35 0 2.419-.246c.214-.017.378-.246.461-.427.033-.082.148-.46-.066-.443l-2.419.246c-.214.017-.378.246-.46.427-.033.082-.149.46.065.443Zm-6.35 18.214 2.418-.246c.214-.016.379-.246.461-.427.033-.082.148-.459-.066-.443l-2.418.247c-.214.016-.379.246-.461.426-.033.082-.165.476.066.443Zm6.35 0 2.419-.246c.214-.016.378-.246.461-.427.033-.082.148-.459-.066-.443l-2.419.247c-.214.016-.378.246-.46.426-.033.082-.149.476.065.443Zm-6.35 18.674 2.418-.246c.214-.016.379-.246.461-.427.033-.082.148-.459-.066-.443l-2.418.247c-.214.016-.379.246-.461.426-.033.082-.165.46.066.443Zm6.35 0 2.419-.246c.214-.016.378-.246.461-.427.033-.082.148-.459-.066-.443l-2.419.247c-.214.016-.378.246-.46.426-.033.082-.149.46.065.443Zm-6.35 16.475 2.418-.246c.214-.016.379-.246.461-.426.033-.082.148-.46-.066-.443l-2.418.246c-.214.016-.379.246-.461.426-.033.082-.165.46.066.443Zm6.35 0 2.419-.246c.214-.016.378-.246.461-.426.033-.082.148-.46-.066-.443l-2.419.246c-.214.016-.378.246-.46.426-.033.082-.149.46.065.443Zm-6.35 18.674 2.418-.246c.214-.016.379-.246.461-.427.033-.082.148-.459-.066-.443l-2.418.247c-.214.016-.379.246-.461.426-.033.082-.165.476.066.443Zm6.35 0 2.419-.246c.214-.016.378-.246.461-.427.033-.082.148-.459-.066-.443l-2.419.247c-.214.016-.378.246-.46.426-.033.082-.149.476.065.443Z"/><path fill="#091E42" d="M141.071 102.524a2.564 2.564 0 0 0-1.086-1.822 3.396 3.396 0 0 0-2.303-.591 5.459 5.459 0 0 0-1.465.345.809.809 0 0 0-.428.525c-.033.131-.033.394.181.312a4.305 4.305 0 0 1 2.403-.263 2.736 2.736 0 0 1 1.661 1.083c.214.296.346.64.379 1.018.016.213.263.115.362.016a.784.784 0 0 0 .296-.623Z"/><path fill="#88EFD7" d="M139.969 100.768c-.329 0-.658-.033-.889-.05-.806-.049-1.596-.196-2.402-.229a3.93 3.93 0 0 0-.609.41.515.515 0 0 1-.526.098c.016.197.016.411.033.608l.395 6.892.049.738c0 .459.362.837.823.886.263 0 .526-.066.74-.213.296-.132.576-.312.806-.558a6.137 6.137 0 0 0 1.432-2.002c.28-.64.477-1.28.428-1.986-.099-1.542-.198-3.068-.28-4.594Z"/><path fill="#091E42" d="M135.296 101.506c.921-.312 1.909-.673 2.896-.492a3.19 3.19 0 0 1 1.25.509c.296.213.543.492.691.836.05.099.099.197.132.296l.049.148v.032c0 .033.017.05.017.082l.049.296v.164-.017c0 .017 0 .066-.016.099 0 .066 0 .164.065.213.066.033.149.017.214-.033a.833.833 0 0 0 .362-.59c.099-.821-.329-1.723-.954-2.248a3.146 3.146 0 0 0-1.283-.591 3.709 3.709 0 0 0-1.531-.017c-.592.115-1.184.279-1.76.493a.763.763 0 0 0-.428.525c-.033.131-.033.394.181.312l.066-.017Z"/></svg>